<?xml version="1.0" encoding="UTF-8"?>
<svg id="Cloudinary" xmlns="http://www.w3.org/2000/svg" viewBox="0 0 500 500">
  <defs>
    <style>
      .cls-1 {
        fill: #3a4fc7;
      }

      .cls-2 {
        fill: #fff;
      }
    </style>
  </defs>
  <circle class="cls-1" cx="250" cy="250" r="248.19"/>
  <g id="SpsXdE">
    <g>
      <path class="cls-2" d="M333.4,219.29c-6.14-31.84-25.69-56.99-55.23-68.47-44.1-17.15-92.78,4.07-110.98,48.2-26.5.91-48.73,18.19-56.07,42-8.11,26.32,2.45,53.72,25.66,68.35l-.73,21.91c-33.1-14.41-51.24-48.3-46.89-82.88,4.21-33.45,30.23-61.65,64.72-67.8,28.48-52.37,93.32-71.1,145.35-41.72,23.98,13.55,41.15,34.78,49.75,60.9,37.8,5.36,64.59,39.29,60,76.95-3.26,26.76-22.48,46.54-48.44,54.74v-21.46c14.82-6.14,25.23-17.5,28.23-32.81,3.06-15.62-2.13-31.2-12.58-42.38-10.35-11.08-24.67-17.16-42.79-15.52Z"/>
      <path class="cls-2" d="M212.24,335l-35.65-.02c-8.54,0-15.18-7.5-15.18-15.87l-.02-68.27-9.51-.98,30.77-30.86,30.87,30.99-9.84.71-.13,69.13c1.76,5.32,3.88,8.09,8.7,15.16Z"/>
      <path class="cls-2" d="M277.76,334.91l-35.76.1c-7.49.02-14.92-6.78-14.94-14.44l-.16-52.78-9.65-.78,30.67-30.87,30.73,30.48-9.67,1.09.16,52.37c.01,4.79,4.45,8.53,8.62,14.83Z"/>
      <path class="cls-2" d="M343.08,335.02l-35.57-.04c-7.48,0-15.05-6.57-15.11-14.32l-.27-35.85-9.51-.86,30.64-30.83,30.68,30.59-9.48,1.3-.22,35.31c1.99,4.85,4.19,7.92,8.83,14.71Z"/>
    </g>
  </g>
</svg>