<?xml version="1.0" encoding="UTF-8"?>
<svg id="MUX" xmlns="http://www.w3.org/2000/svg" viewBox="0 0 500 500">
  <defs>
    <style>
      .cls-1 {
        fill: #ef494b;
      }

      .cls-2 {
        fill: #ef4b3f;
      }

      .cls-3 {
        fill: #ef3e6b;
      }

      .cls-4 {
        fill: #fff;
      }

      .cls-5 {
        fill: #ee2885;
      }

      .cls-6 {
        fill: #ef4656;
      }

      .cls-7 {
        opacity: .65;
      }

      .cls-8 {
        opacity: .64;
      }

      .cls-9 {
        fill: #f04f2a;
      }
    </style>
  </defs>
  <circle class="cls-4" cx="250" cy="250" r="248.19"/>
  <g>
    <g>
      <g class="cls-7">
        <path class="cls-3" d="M250.03,300.96c-6.08,0-11-4.93-11-11s4.93-11,11-11c13.65,0,24.76-11.11,24.76-24.76v-44.42c0-6.08,4.93-11,11-11s11,4.93,11,11v44.42c0,25.79-20.98,46.77-46.77,46.77Z"/>
      </g>
      <path class="cls-6" d="M249.77,300.96c-25.79,0-46.77-20.98-46.77-46.77v-44.42c0-6.08,4.93-11,11-11s11,4.93,11,11v44.42c0,13.65,11.11,24.76,24.76,24.76,6.08,0,11,4.93,11,11s-4.93,11-11,11Z"/>
    </g>
    <g>
      <g class="cls-7">
        <path class="cls-1" d="M180.52,301.11c-6.08,0-11-4.93-11-11v-80.19c0-6.08,4.93-11,11-11s11,4.93,11,11v80.19c0,6.08-4.93,11-11,11Z"/>
      </g>
      <g class="cls-8">
        <path class="cls-9" d="M140.17,261.04c-2.82,0-5.63-1.07-7.78-3.22l-40.12-40.12c-4.3-4.3-4.3-11.26,0-15.56,4.3-4.3,11.26-4.3,15.56,0l40.12,40.12c4.3,4.3,4.3,11.26,0,15.56-2.15,2.15-4.96,3.22-7.78,3.22Z"/>
      </g>
      <circle class="cls-1" cx="180.53" cy="290.13" r="10.97"/>
      <path class="cls-2" d="M140.09,261.02c-2.83,0-5.66-1.09-7.81-3.25-4.28-4.31-4.25-11.28.06-15.56l40.43-40.1c4.31-4.28,11.28-4.25,15.56.06,4.28,4.31,4.25,11.28-.06,15.56l-40.43,40.1c-2.15,2.13-4.95,3.19-7.75,3.19Z"/>
      <path class="cls-9" d="M100.05,301.11c-6.08,0-11-4.93-11-11v-80.19c0-6.08,4.93-11,11-11s11,4.93,11,11v80.19c0,6.08-4.93,11-11,11Z"/>
    </g>
    <g>
      <g class="cls-7">
        <path class="cls-5" d="M399.76,301.23c-2.82,0-5.63-1.08-7.78-3.23l-80.19-80.28c-4.29-4.3-4.29-11.26,0-15.56,4.3-4.29,11.26-4.29,15.56,0l80.19,80.28c4.29,4.3,4.29,11.26,0,15.56-2.15,2.15-4.96,3.22-7.77,3.22Z"/>
      </g>
      <circle class="cls-5" cx="399.73" cy="290.21" r="10.97"/>
      <path class="cls-5" d="M319.67,301.19c-2.82,0-5.63-1.08-7.78-3.23-4.29-4.3-4.29-11.26,0-15.56l80.28-80.19c4.3-4.29,11.26-4.29,15.56,0,4.29,4.3,4.29,11.26,0,15.56l-80.28,80.19c-2.15,2.15-4.96,3.22-7.77,3.22Z"/>
    </g>
  </g>
</svg>