<?xml version="1.0" encoding="UTF-8"?>
<svg id="MUX" xmlns="http://www.w3.org/2000/svg" viewBox="0 0 500 500">
  <defs>
    <style>
      .cls-1 {
        fill: #fff;
      }
    </style>
  </defs>
  <g id="g5vKcY.tif">
    <g>
      <path class="cls-1" d="M259.18,2.3l8.67.5c53.99,3.78,104.99,25.32,145.56,60.97,51.22,45.01,81.86,109.22,84.04,177.51l.41,5.35-.17,13.87c-1.09,22.92-5.11,45.45-12.45,67.31H15.35s-5.07-18.28-5.07-18.28h349.04c14.13-1.3,26.93-7.14,36.05-17.8,12.46-15.1,15.86-35.29,9.5-53.8-2.87-8.34-7.15-15.38-12.48-22.42-12.65-16.69-25.99-32.39-40.99-47.03-10.65-10.39-22.37-18.55-36.07-24.52-25.93-11.3-54.89-13.9-83.24-14.71l-40.18-1.15-60.06.04-98.11.03c24.64-43.37,61.21-78,105.32-100.02,29.01-14.48,60.37-23.31,92.59-25.37l7.77-.5h19.76Z"/>
      <path class="cls-1" d="M2.15,239.32l.16-3.36.34-4.41,1.86-17.29h197.92s-.09-25.17-.09-25.17H9.45c1.02-4.34,1.95-8.23,3.35-12.21l8.35-23.67,152.82-.16,65.35,1.39c10.23.22,19.69.58,29.73,1.9,30.47,3.99,52.82,19.48,74.18,40.65,10.08,9.98,18.93,20.63,27.85,31.63,2.72,3.35,5.28,6.37,7.48,10.59l-376.41.11Z"/>
      <path class="cls-1" d="M2.14,264.93v-.39s379.47-.16,379.47-.16c-2.98,12.32-13.67,19.85-26.18,19.85H4.34s-1.49-13.13-1.49-13.13l-.71-6.17Z"/>
      <path class="cls-1" d="M257.92,497.7l-15.52-.09c-38.69-1.49-76.58-10.98-110.73-29.55-39.09-21.27-71.63-53.2-94.87-90.99-4.82-7.84-9.05-15.69-12.85-24.33h451.44c-39.19,84.36-120.4,140-212.67,144.68l-4.8.28Z"/>
    </g>
  </g>
</svg>